<?xml version="1.0" encoding="iso-8859-1"?>
<!-- Generator: Adobe Illustrator 19.0.0, SVG Export Plug-In . SVG Version: 6.00 Build 0)  -->
<svg version="1.1" id="Capa_1" xmlns="http://www.w3.org/2000/svg" xmlns:xlink="http://www.w3.org/1999/xlink" x="0px" y="0px"
	 viewBox="0 0 512 512" style="enable-background:new 0 0 512 512;" xml:space="preserve">
<g>
	<g>
		<path d="M173.424,399.468c-4.142,0-7.5,3.358-7.5,7.5v14.945c0,4.142,3.358,7.5,7.5,7.5c4.142,0,7.5-3.358,7.5-7.5v-14.945
			C180.924,402.826,177.566,399.468,173.424,399.468z"/>
	</g>
</g>
<g>
	<g>
		<path d="M338.576,399.468c-4.142,0-7.5,3.358-7.5,7.5v14.945c0,4.142,3.358,7.5,7.5,7.5c4.142,0,7.5-3.358,7.5-7.5v-14.945
			C346.076,402.826,342.718,399.468,338.576,399.468z"/>
	</g>
</g>
<g>
	<g>
		<path d="M281.317,415.226c-3.119-2.727-7.856-2.408-10.583,0.711c-3.584,4.101-8.955,6.453-14.734,6.453
			c-5.779,0-11.149-2.352-14.734-6.453c-2.727-3.119-7.464-3.437-10.583-0.711c-3.119,2.726-3.437,7.464-0.711,10.583
			c6.434,7.36,15.921,11.581,26.028,11.581c10.107,0,19.594-4.221,26.028-11.581C284.754,422.69,284.436,417.952,281.317,415.226z"
			/>
	</g>
</g>
<g>
	<g>
		<path d="M256,219.306c-18.298,0-33.184,14.886-33.184,33.184s14.886,33.184,33.184,33.184s33.184-14.886,33.184-33.184
			C289.184,234.192,274.298,219.306,256,219.306z M256,270.674c-10.027,0-18.184-8.157-18.184-18.184s8.157-18.184,18.184-18.184
			c10.027,0,18.184,8.157,18.184,18.184C274.184,262.517,266.027,270.674,256,270.674z"/>
	</g>
</g>
<g>
	<g>
		<path d="M226.376,138.725c-5.294-5.293-12.332-8.209-19.819-8.209c-21.919,0-35.429,25.163-23.428,43.421
			c5.148,7.833,14.059,12.637,23.428,12.637c7.487,0,14.525-2.916,19.82-8.209C237.304,167.436,237.304,149.653,226.376,138.725z
			 M215.77,167.757c-2.461,2.461-5.733,3.816-9.213,3.816s-6.752-1.355-9.212-3.816c-8.007-8.006-2.123-22.242,9.212-22.242
			C217.936,145.515,223.792,159.735,215.77,167.757z"/>
	</g>
</g>
<g>
	<g>
		<path d="M325.263,138.726c-5.294-5.294-12.333-8.21-19.82-8.21s-14.525,2.916-19.819,8.21c-10.928,10.928-10.928,28.71,0,39.639
			c5.294,5.293,12.333,8.209,19.819,8.209c7.486,0,14.525-2.916,19.82-8.209C336.191,167.437,336.191,149.655,325.263,138.726z
			 M314.656,167.757c-2.461,2.461-5.733,3.816-9.213,3.816c-3.48,0-6.752-1.355-9.212-3.816c-5.08-5.08-5.08-13.346,0-18.425
			c2.461-2.461,5.733-3.816,9.213-3.816c3.48,0,6.752,1.355,9.213,3.816C319.736,154.412,319.736,162.677,314.656,167.757z"/>
	</g>
</g>
<g>
	<g>
		<path d="M164.671,243.489c-1.527-5.452-4.466-10.461-8.47-14.464c-12.791-12.791-34.148-12.781-46.929-0.001
			c-12.784,12.784-12.768,34.163,0,46.93c6.268,6.268,14.601,9.719,23.465,9.719C154.441,285.673,170.499,264.3,164.671,243.489z
			 M145.595,265.348c-3.435,3.435-8.001,5.326-12.858,5.326c-15.836,0-24.032-19.867-12.859-31.042
			c3.435-3.435,8.001-5.326,12.858-5.326C148.631,234.306,156.793,254.149,145.595,265.348z"/>
	</g>
</g>
<g>
	<g>
		<path d="M402.728,229.025c-6.268-6.268-14.601-9.719-23.465-9.719c-8.864,0-17.197,3.451-23.464,9.719
			c-12.938,12.938-12.938,33.991,0,46.93c6.268,6.268,14.601,9.719,23.464,9.719s17.197-3.451,23.465-9.719s9.72-14.602,9.72-23.465
			C412.448,243.627,408.996,235.292,402.728,229.025z M392.122,265.348c-3.435,3.435-8.001,5.326-12.858,5.326
			s-9.423-1.891-12.858-5.326c-7.09-7.09-7.09-18.626,0-25.717c3.435-3.435,8.001-5.326,12.858-5.326s9.424,1.891,12.858,5.326
			c3.435,3.435,5.326,8.001,5.326,12.858S395.556,261.913,392.122,265.348z"/>
	</g>
</g>
<g>
	<g>
		<path d="M450.79,294.473c0.364-0.652,0.734-1.299,1.071-1.972c7.966-15.885,6.966-34.409-2.437-49.23
			c3.19-12.328,1.621-25.041-4.374-36.075V189.05C445.05,84.808,360.243,0,256,0S66.95,84.808,66.95,189.05v18.143
			c-5.995,11.034-7.564,23.749-4.374,36.078c-9.403,14.82-10.402,33.343-2.436,49.228c0.338,0.673,0.708,1.321,1.072,1.974
			c-13.195,0.088-23.904,10.846-23.904,24.062v14.988c0,10.651,6.958,19.702,16.564,22.862c0.192,8.91,1.228,26.027,5.82,46.449
			c8.834,39.284,26.813,72.049,51.995,94.752C121.996,506.881,135.297,512,149.14,512h213.719c13.843,0,27.144-5.119,37.453-14.414
			c25.182-22.704,43.161-55.469,51.995-94.752c4.592-20.422,5.628-37.54,5.82-46.449c9.607-3.16,16.565-12.211,16.565-22.862
			v-14.988C474.691,305.319,463.984,294.562,450.79,294.473z M435.204,249.052c8.114,10.873,9.328,24.602,3.249,36.725
			c-5.937,11.838-18.083,19.372-31.337,19.372c-2.67-0.016-5.126,0.922-6.713,3.165c-6.669,9.431-17.048,14.84-28.474,14.84
			c-15.313,0-28.395-9.273-33.329-23.624c-0.947-2.756-2.366-5.084-5.313-6c-2.774-0.862-5.38-2.018-7.79-3.45
			c0.256-1.868,0.402-3.759,0.443-5.668c0.02-0.947-0.113-5.017-0.219-6.103c0.029-0.033,0.054-0.068,0.083-0.101
			c2.504-2.858,4.682-6.009,6.475-9.359c4.83-9.026,6.773-19.472,5.549-29.631c-1.038-8.627-4.312-17.065-9.873-24.391
			c1.377-4.832,3.808-9.321,7.095-13.121c6.67-7.71,16.654-12.19,26.832-12.19c7.512,0,14.809,2.547,20.819,7.034
			c1.978,1.477,4.556,1.884,6.894,1.092c3.012-1.021,6.073-1.636,9.129-1.848c10.945-0.759,21.95,4.182,29.01,12.512
			c7.871,9.286,10.315,22.241,6.378,33.852C433.319,244.496,433.727,247.074,435.204,249.052z M307.332,298.6
			c-2.107,4.188-5.105,7.915-8.699,10.963c-10.956,9.29-26.394,11.16-39.143,4.457c-2.186-1.148-4.795-1.148-6.98,0
			c-12.746,6.698-28.272,4.875-39.22-4.457c-0.008-0.007-0.015-0.014-0.023-0.02c-9.091-7.957-13.738-20.57-11.689-32.526
			c0.417-2.433-0.389-4.916-2.157-6.639c-2.754-2.684-5.111-5.817-6.866-9.241c-8.193-15.976-2.091-36.978,13.35-46.112
			c3.965-2.345,8.416-3.859,12.971-4.521c2.443-0.354,4.555-1.889,5.66-4.127c5.107-10.34,14.923-17.475,26.328-19.161
			c0.05-0.007,0.099-0.016,0.148-0.024c15.054-2.092,29.734,5.569,36.467,19.209c1.093,2.214,3.205,3.748,5.647,4.103
			c7.999,1.161,15.588,5.063,21.03,11.156c0.032,0.036,0.068,0.069,0.101,0.104c12.689,13.483,11.351,35.918-1.677,48.614
			c-1.547,1.507-2.357,3.597-2.256,5.725C310.697,283.951,310.958,291.389,307.332,298.6z M138.162,175.983
			c-5.136,1.294-10.067,3.423-14.65,6.345c-0.6-0.155-1.203-0.275-1.806-0.408C125.437,111.12,184.378,54.557,256,54.557
			s130.563,56.563,134.293,127.362c-0.602,0.133-1.206,0.253-1.806,0.408c-4.583-2.921-9.514-5.05-14.65-6.345
			c4.472-15.489-0.356-32.272-12.937-42.985c-0.75-9.769-4.827-18.803-11.697-25.762c-7.862-7.964-18.748-12.531-29.866-12.531
			c-7.613,0-14.981,2.114-21.522,6.146c-3.241-0.788-6.528-1.186-9.812-1.186c-12.323,0-24.084,5.678-31.991,15.308
			c-7.753-9.488-19.431-15.307-32.021-15.307c-3.282,0-6.567,0.397-9.807,1.185c-6.542-4.032-13.91-6.146-21.522-6.146
			c-21.421,0-39.924,16.921-41.563,38.293C138.519,143.71,133.691,160.494,138.162,175.983z M162.807,142.879
			c2.015-1.425,3.2-3.751,3.169-6.219c-0.188-14.683,11.996-26.955,26.687-26.955c5.62,0,11.063,1.846,15.742,5.336
			c1.979,1.477,4.557,1.885,6.894,1.092c2.87-0.974,5.795-1.467,8.693-1.467c10.165,0,19.733,6.326,24.042,15.641
			c-0.903,3.277-1.393,6.649-1.453,10.057c-0.065,3.5,0.325,7.004,1.138,10.408c0.011,0.047,0.019,0.095,0.028,0.146
			c-1.538,2.49-2.808,5.14-3.792,7.896c-1.705,4.776-2.493,9.851-2.329,14.919c0.002,0.057-0.002,0.113,0,0.169
			c-11.053,3.224-20.443,10.089-26.948,19.68c-0.612,0.903-1.208,1.821-1.767,2.772c-6.201,1.369-11.944,3.823-17.055,7.27
			c-0.069-0.149-0.143-0.295-0.213-0.444c-2.563-5.448-6.173-10.448-10.533-14.636c-1.157-1.112-2.417-2.208-3.696-3.217
			c-7.941-6.271-17.747-10.015-27.837-10.697C149.543,164.516,151.259,151.046,162.807,142.879z M318.5,199.123
			c-0.86,1.456-1.65,2.964-2.356,4.501c-5.113-3.448-10.858-5.903-17.061-7.271c-5.82-9.842-14.99-17.454-25.71-21.42
			c-5.304-1.962-11.045-3.016-16.749-3.085c0.126-5.452,2.059-10.788,5.314-15.15c1.477-1.979,1.885-4.557,1.092-6.895
			c-6.652-19.595,12.928-39.905,32.794-33.951c2.731,0.819,5.352,0.995,7.772-0.812c17.309-12.921,42.703,0.176,42.428,21.619
			c-0.031,2.468,1.154,4.794,3.169,6.219c11.549,8.167,13.264,21.637,9.23,31.751c-8.15,0.55-15.817,3.029-22.507,7.026
			C328.78,185.921,322.731,191.961,318.5,199.123z M81.95,189.05C81.95,93.078,160.028,15,256,15s174.05,78.078,174.05,174.05v1.111
			c-0.095-0.068-0.193-0.132-0.288-0.2c-4.095-2.907-8.626-5.213-13.399-6.78c-3.6-1.182-7.323-1.965-11.099-2.292
			C401.003,102.299,335.533,39.557,256,39.557s-145.003,62.742-149.264,141.332c-8.902,0.774-17.534,4.07-24.786,9.272V189.05z
			 M77.889,242.155c-3.386-9.986-2.229-20.521,3.114-29.319c4.285-7.057,11.048-12.576,18.864-15.259
			c7.342-2.521,15.2-2.362,22.538,0.063c2.337,0.792,4.916,0.384,6.894-1.092c6.063-4.525,13.251-7.034,20.819-7.034
			c10.129,0,19.381,4.226,25.865,11.117c3.532,3.754,6.237,8.362,7.794,13.3c0.037,0.118,0.332,0.811,0.268,0.895
			c-5.56,7.324-8.833,15.76-9.872,24.385c-1.676,13.917,2.781,28.446,12.023,38.997c0.029,0.033,0.054,0.068,0.083,0.101
			c-0.205,2.1-0.266,4.214-0.212,6.323c0.018,0.693,0.668,5.311,0.437,5.448c-2.409,1.432-5.016,2.587-7.79,3.45
			c-2.82,0.877-4.316,3.099-5.21,5.761c-0.031,0.081-0.075,0.155-0.104,0.239c-6.913,20.183-31.19,29.534-49.899,19.331
			c-4.671-2.547-8.79-6.141-11.904-10.547c-1.579-2.234-4.049-3.166-6.711-3.166c-8.5,0-16.911-3.066-23.249-8.766
			c-0.085-0.076-0.176-0.144-0.263-0.215c-3.135-2.869-5.797-6.353-7.824-10.394c-6.08-12.123-4.866-25.852,3.247-36.723
			C78.274,247.071,78.682,244.493,77.889,242.155z M390.268,486.446C382.719,493.252,372.985,497,362.859,497H149.141
			c-10.126,0-19.86-3.748-27.409-10.554C75.81,445.043,69.677,379.299,68.939,357.588h374.132
			C442.361,379.279,436.299,444.944,390.268,486.446z M459.693,333.522h-0.002c0,4.999-4.067,9.066-9.066,9.066H61.375
			c-4.999,0-9.066-4.067-9.066-9.066v-14.988c0-4.999,4.067-9.066,9.066-9.066h12.516c7.976,6.351,17.485,9.971,27.811,10.586
			c5.357,6.5,12.062,11.416,19.586,14.473c7.536,3.061,15.808,4.177,23.893,3.376c17.336-1.718,32.946-12.672,40.369-28.435h8.044
			c0.533,0.843,1.852,2.721,1.937,2.836c9.394,12.815,24.704,20.842,40.637,20.842c6.83,0,13.484-1.401,19.833-4.172
			c4.732,2.064,9.789,3.409,14.927,3.923c16.383,1.639,32.785-5.248,43.365-17.796c1.498-1.776,2.876-3.67,4.117-5.634h8.042
			c0.64,1.359,1.335,2.696,2.094,3.992c8.959,15.253,25.698,24.702,43.362,24.702c14.797,0,28.985-6.693,38.392-18.107
			c10.325-0.616,19.835-4.236,27.811-10.586h12.516c4.999,0,9.066,4.067,9.066,9.066V333.522z"/>
	</g>
</g>
<g>
</g>
<g>
</g>
<g>
</g>
<g>
</g>
<g>
</g>
<g>
</g>
<g>
</g>
<g>
</g>
<g>
</g>
<g>
</g>
<g>
</g>
<g>
</g>
<g>
</g>
<g>
</g>
<g>
</g>
</svg>
